<mxfile host="app.diagrams.net" modified="2024-05-13T12:47:17.089Z" agent="Mozilla/5.0 (Windows NT 10.0; Win64; x64) AppleWebKit/537.36 (KHTML, like Gecko) Chrome/124.0.0.0 Safari/537.36" etag="Uaz3KSZdGrvp_l-dFpCF" version="24.4.0" type="github">
  <diagram name="Sayfa -1" id="kKzHLGSKIOkIXO0F31tR">
    <mxGraphModel dx="1434" dy="738" grid="1" gridSize="10" guides="1" tooltips="1" connect="1" arrows="1" fold="1" page="1" pageScale="1" pageWidth="827" pageHeight="1169" math="0" shadow="0">
      <root>
        <mxCell id="0" />
        <mxCell id="1" parent="0" />
        <mxCell id="9pXXfi69la4mdvmXIPyO-16" style="edgeStyle=orthogonalEdgeStyle;rounded=0;orthogonalLoop=1;jettySize=auto;html=1;entryX=0.5;entryY=0;entryDx=0;entryDy=0;" edge="1" parent="1" source="9pXXfi69la4mdvmXIPyO-1" target="9pXXfi69la4mdvmXIPyO-15">
          <mxGeometry relative="1" as="geometry" />
        </mxCell>
        <mxCell id="9pXXfi69la4mdvmXIPyO-1" value="Başla" style="rounded=0;whiteSpace=wrap;html=1;" vertex="1" parent="1">
          <mxGeometry x="370" width="120" height="60" as="geometry" />
        </mxCell>
        <mxCell id="9pXXfi69la4mdvmXIPyO-5" value="" style="edgeStyle=orthogonalEdgeStyle;rounded=0;orthogonalLoop=1;jettySize=auto;html=1;" edge="1" parent="1" source="9pXXfi69la4mdvmXIPyO-2" target="9pXXfi69la4mdvmXIPyO-4">
          <mxGeometry relative="1" as="geometry" />
        </mxCell>
        <mxCell id="9pXXfi69la4mdvmXIPyO-2" value="Kart Satın Alma Butonuna Bas" style="whiteSpace=wrap;html=1;rounded=0;" vertex="1" parent="1">
          <mxGeometry x="370" y="160" width="120" height="60" as="geometry" />
        </mxCell>
        <mxCell id="9pXXfi69la4mdvmXIPyO-10" value="" style="edgeStyle=orthogonalEdgeStyle;rounded=0;orthogonalLoop=1;jettySize=auto;html=1;" edge="1" parent="1" source="9pXXfi69la4mdvmXIPyO-4" target="9pXXfi69la4mdvmXIPyO-9">
          <mxGeometry relative="1" as="geometry" />
        </mxCell>
        <mxCell id="9pXXfi69la4mdvmXIPyO-11" value="Evet" style="edgeLabel;html=1;align=center;verticalAlign=middle;resizable=0;points=[];" vertex="1" connectable="0" parent="9pXXfi69la4mdvmXIPyO-10">
          <mxGeometry x="-0.7333" y="-3" relative="1" as="geometry">
            <mxPoint as="offset" />
          </mxGeometry>
        </mxCell>
        <mxCell id="9pXXfi69la4mdvmXIPyO-22" style="edgeStyle=orthogonalEdgeStyle;rounded=0;orthogonalLoop=1;jettySize=auto;html=1;exitX=0.5;exitY=0;exitDx=0;exitDy=0;" edge="1" parent="1" source="9pXXfi69la4mdvmXIPyO-4" target="9pXXfi69la4mdvmXIPyO-21">
          <mxGeometry relative="1" as="geometry" />
        </mxCell>
        <mxCell id="9pXXfi69la4mdvmXIPyO-23" value="Hayır" style="edgeLabel;html=1;align=center;verticalAlign=middle;resizable=0;points=[];" vertex="1" connectable="0" parent="9pXXfi69la4mdvmXIPyO-22">
          <mxGeometry x="-0.7872" y="-1" relative="1" as="geometry">
            <mxPoint as="offset" />
          </mxGeometry>
        </mxCell>
        <mxCell id="9pXXfi69la4mdvmXIPyO-4" value="Satın Alım Yapıldımı" style="rhombus;whiteSpace=wrap;html=1;rounded=0;" vertex="1" parent="1">
          <mxGeometry x="174" y="80" width="80" height="80" as="geometry" />
        </mxCell>
        <mxCell id="9pXXfi69la4mdvmXIPyO-9" value="Envantere İstenilen Kartı Ekle Butonunun Üstüne Ekle" style="whiteSpace=wrap;html=1;rounded=0;" vertex="1" parent="1">
          <mxGeometry x="154" y="200" width="120" height="60" as="geometry" />
        </mxCell>
        <mxCell id="9pXXfi69la4mdvmXIPyO-20" style="edgeStyle=orthogonalEdgeStyle;rounded=0;orthogonalLoop=1;jettySize=auto;html=1;exitX=0.5;exitY=1;exitDx=0;exitDy=0;entryX=0.5;entryY=0;entryDx=0;entryDy=0;" edge="1" parent="1" source="9pXXfi69la4mdvmXIPyO-15" target="9pXXfi69la4mdvmXIPyO-2">
          <mxGeometry relative="1" as="geometry" />
        </mxCell>
        <mxCell id="9pXXfi69la4mdvmXIPyO-15" value="Envantere Git" style="rounded=0;whiteSpace=wrap;html=1;" vertex="1" parent="1">
          <mxGeometry x="370" y="80" width="120" height="40" as="geometry" />
        </mxCell>
        <mxCell id="9pXXfi69la4mdvmXIPyO-24" style="edgeStyle=orthogonalEdgeStyle;rounded=0;orthogonalLoop=1;jettySize=auto;html=1;entryX=0;entryY=0.5;entryDx=0;entryDy=0;" edge="1" parent="1" source="9pXXfi69la4mdvmXIPyO-21" target="9pXXfi69la4mdvmXIPyO-1">
          <mxGeometry relative="1" as="geometry">
            <Array as="points">
              <mxPoint x="100" y="10" />
              <mxPoint x="330" y="10" />
              <mxPoint x="330" y="30" />
            </Array>
          </mxGeometry>
        </mxCell>
        <mxCell id="9pXXfi69la4mdvmXIPyO-25" value="Hayır" style="edgeLabel;html=1;align=center;verticalAlign=middle;resizable=0;points=[];" vertex="1" connectable="0" parent="9pXXfi69la4mdvmXIPyO-24">
          <mxGeometry x="-0.9067" y="-3" relative="1" as="geometry">
            <mxPoint as="offset" />
          </mxGeometry>
        </mxCell>
        <mxCell id="9pXXfi69la4mdvmXIPyO-26" style="edgeStyle=orthogonalEdgeStyle;rounded=0;orthogonalLoop=1;jettySize=auto;html=1;exitX=0.5;exitY=1;exitDx=0;exitDy=0;" edge="1" parent="1" source="9pXXfi69la4mdvmXIPyO-21">
          <mxGeometry relative="1" as="geometry">
            <mxPoint x="100" y="210" as="targetPoint" />
          </mxGeometry>
        </mxCell>
        <mxCell id="9pXXfi69la4mdvmXIPyO-27" value="Evet" style="edgeLabel;html=1;align=center;verticalAlign=middle;resizable=0;points=[];" vertex="1" connectable="0" parent="9pXXfi69la4mdvmXIPyO-26">
          <mxGeometry x="-0.7466" y="4" relative="1" as="geometry">
            <mxPoint as="offset" />
          </mxGeometry>
        </mxCell>
        <mxCell id="9pXXfi69la4mdvmXIPyO-21" value="Envanterde Kart Varmı" style="rhombus;whiteSpace=wrap;html=1;" vertex="1" parent="1">
          <mxGeometry x="60" y="20" width="80" height="80" as="geometry" />
        </mxCell>
      </root>
    </mxGraphModel>
  </diagram>
</mxfile>
